<svg width="63" height="63" viewBox="0 0 63 63" fill="none" xmlns="http://www.w3.org/2000/svg">
<path d="M56.9395 63H6.06049C2.70363 63 0 60.2782 0 56.9395V6.06048C0 2.70363 2.70363 0 6.06049 0H56.9577C60.2964 0 63.0182 2.70363 63.0182 6.06048V56.9577C63 60.2782 60.2783 63 56.9395 63Z" fill="url(#paint0_linear)"/>
<path d="M27.9615 40.3367L15.7861 18.4899C15.6954 18.3266 15.8224 18.1089 16.0039 18.1089H24.0422C24.1692 18.1089 24.2599 18.1996 24.2962 18.3085L28.4515 40.1553C28.4878 40.4456 28.1067 40.5907 27.9615 40.3367Z" fill="white"/>
<path d="M30.9374 39.7198L27.0543 9.25411C27.0362 9.10895 27.1632 8.98193 27.3084 8.98193H35.0745C35.2197 8.98193 35.3467 9.10895 35.3285 9.25411L31.4455 39.738C31.391 40.0283 30.9737 40.0283 30.9374 39.7198Z" fill="white"/>
<path d="M46.4878 18.4899L34.2942 40.3367C34.149 40.5907 33.768 40.4456 33.8224 40.1734L37.9777 18.3266C37.9958 18.1996 38.1047 18.127 38.2317 18.127H46.27C46.4515 18.1089 46.5785 18.3266 46.4878 18.4899Z" fill="white"/>
<path d="M10.9416 52.8569C10.9416 53.002 10.869 53.1472 10.7602 53.2379C10.5969 53.3649 10.4154 53.4738 10.2158 53.5827C9.78032 53.8004 9.30855 53.9093 8.80048 53.9093C8.365 53.9093 7.9658 53.8186 7.56661 53.6553C7.18556 53.492 6.8408 53.2561 6.55048 52.9658C6.26016 52.6754 6.02427 52.3307 5.86097 51.9496C5.69766 51.5686 5.60693 51.1512 5.60693 50.7158C5.60693 50.2803 5.69766 49.8811 5.86097 49.4819C6.02427 49.1008 6.26016 48.7561 6.55048 48.4658C6.8408 48.1754 7.18556 47.9396 7.56661 47.7762C7.94766 47.6129 8.365 47.5222 8.80048 47.5222C9.30855 47.5222 9.79846 47.6311 10.2158 47.8488C10.4154 47.9577 10.5969 48.0666 10.7783 48.2117C10.8872 48.3025 10.9598 48.4295 10.9416 48.5746C10.9416 48.7198 10.869 48.865 10.7602 48.9557C10.6694 49.0101 10.5787 49.0464 10.4698 49.0464C10.361 49.0464 10.2521 49.0101 10.1432 48.9375C10.0344 48.8468 9.90734 48.7742 9.78032 48.7017C9.47185 48.5565 9.14524 48.4839 8.78234 48.4839C8.47387 48.4839 8.18355 48.5383 7.91137 48.6654C7.63919 48.7742 7.4033 48.9375 7.20371 49.1371C7.00411 49.3367 6.8408 49.5726 6.73193 49.8448C6.62306 50.117 6.56863 50.4073 6.56863 50.6976C6.56863 51.0061 6.62306 51.2783 6.75008 51.5504C6.85895 51.8226 7.02226 52.0585 7.22185 52.2581C7.42145 52.4577 7.65734 52.621 7.92951 52.7299C8.20169 52.8569 8.49201 52.9113 8.80048 52.9113C9.16338 52.9113 9.49 52.8387 9.79846 52.6754C9.92548 52.6029 10.0525 52.5303 10.1614 52.4395C10.2521 52.367 10.361 52.3307 10.4698 52.3307C10.5787 52.3307 10.6694 52.367 10.7602 52.4214C10.8872 52.5666 10.9416 52.7117 10.9416 52.8569Z" fill="white"/>
<path d="M20.1956 45.7984V53.3649C20.1956 53.6371 19.9778 53.8367 19.7238 53.8367C19.4698 53.8367 19.2339 53.619 19.2339 53.3649V45.7984C19.2339 45.5263 19.4516 45.3267 19.7238 45.3267C19.996 45.3267 20.1956 45.5444 20.1956 45.7984Z" fill="white"/>
<path d="M26.9637 48.0483V51.1874C26.9637 51.6592 26.8548 52.1128 26.6371 52.4938C26.4193 52.893 26.1109 53.2196 25.748 53.4555C25.5302 53.6007 25.2762 53.7096 25.0403 53.7821C24.7863 53.8547 24.5141 53.9091 24.2419 53.9091C23.9697 53.9091 23.6976 53.8729 23.4435 53.7821C23.1895 53.7096 22.9536 53.5825 22.7359 53.4374C22.373 53.2015 22.0645 52.8749 21.8468 52.4757C21.629 52.0765 21.5201 51.641 21.5201 51.1692V48.0301C21.5201 47.7579 21.7379 47.5583 21.9919 47.5583C22.2459 47.5583 22.4818 47.7761 22.4818 48.0301V51.1692C22.4818 51.4051 22.5363 51.641 22.627 51.8587C22.7177 52.0765 22.8447 52.2579 23.008 52.4212C23.1714 52.5846 23.3528 52.7116 23.5705 52.8023C23.7883 52.893 24.0242 52.9475 24.2601 52.9475C24.496 52.9475 24.7318 52.893 24.9496 52.8023C25.1673 52.7116 25.3488 52.5846 25.5121 52.4212C25.6754 52.2579 25.8024 52.0765 25.8931 51.8587C25.9839 51.641 26.0383 51.4051 26.0383 51.1692V48.0301C26.0383 47.7579 26.256 47.5583 26.5101 47.5583C26.7641 47.5583 26.9637 47.7942 26.9637 48.0483Z" fill="white"/>
<path d="M38.2138 50.2802V53.4556C38.2138 53.7278 37.9961 53.9274 37.7239 53.9274C37.4517 53.9274 37.2521 53.7096 37.2521 53.4556V50.2802C37.2521 50.0443 37.1977 49.8084 37.107 49.5907C37.0162 49.3729 36.8892 49.1915 36.7259 49.0282C36.5626 48.8649 36.363 48.7379 36.1634 48.6471C35.9457 48.5564 35.7098 48.502 35.4739 48.502C35.238 48.502 35.0021 48.5564 34.7844 48.6471C34.5666 48.7379 34.367 48.8649 34.2037 49.0282C34.0404 49.1915 33.9134 49.3911 33.8227 49.5907C33.732 49.8084 33.6775 50.0443 33.6775 50.2802V53.4556C33.6775 53.7278 33.4598 53.9274 33.2057 53.9274C32.9517 53.9274 32.734 53.7096 32.734 53.4556V50.2802C32.734 50.0443 32.6795 49.8084 32.5888 49.5907C32.4981 49.3729 32.3711 49.1915 32.2078 49.0282C32.0445 48.8649 31.863 48.7379 31.6453 48.6471C31.4275 48.5564 31.1916 48.502 30.9557 48.502C30.7199 48.502 30.484 48.5564 30.2662 48.6471C30.0485 48.7379 29.8489 48.8649 29.6856 49.0282C29.5223 49.1915 29.3953 49.3911 29.3045 49.5907C29.2138 49.8084 29.1594 50.0443 29.1594 50.2802V53.4556C29.1594 53.7278 28.9416 53.9274 28.6876 53.9274C28.4336 53.9274 28.2158 53.7096 28.2158 53.4556V50.0987C28.2158 49.2822 28.615 48.5383 29.3045 48.0846L29.4497 47.9939C29.6674 47.8488 29.9215 47.7399 30.1755 47.6673C30.4295 47.5947 30.7017 47.5403 30.9739 47.5403C31.2461 47.5403 31.5182 47.5766 31.7723 47.6673C32.0263 47.7399 32.2622 47.8488 32.4799 47.9939C32.6977 48.1391 32.9154 48.3387 33.0969 48.5746L33.242 48.7379L33.3872 48.5746C33.5687 48.3568 33.7682 48.1572 34.0041 47.9939C34.2219 47.8488 34.4759 47.7399 34.7299 47.6673C34.984 47.5947 35.2562 47.5403 35.5283 47.5403C35.8005 47.5403 36.0727 47.5766 36.3267 47.6673C36.5808 47.7399 36.8166 47.8488 37.0344 47.9939C37.4154 48.2479 37.7058 48.5746 37.9235 48.9737C38.1049 49.3548 38.2138 49.8084 38.2138 50.2802Z" fill="white"/>
<path d="M45.3813 49.5C45.218 49.119 44.9821 48.7742 44.6918 48.4839C44.4015 48.1936 44.0749 47.9577 43.6938 47.7944C43.3128 47.6311 42.8954 47.5585 42.3329 47.5585C41.3894 47.5585 40.8632 47.8307 40.4821 48.121L40.21 48.3206L40.2281 45.7984C40.2281 45.5263 40.0104 45.3267 39.7563 45.3267C39.5023 45.3267 39.2845 45.5444 39.2845 45.7984V50.7339C39.2845 51.1876 39.3571 51.6049 39.5204 51.9859C39.6837 52.367 39.9196 52.7118 40.21 53.0021C40.4821 53.2743 40.8087 53.5101 41.2079 53.6734C41.6071 53.8367 42.0245 53.9093 42.46 53.9093C42.8954 53.9093 43.3128 53.8367 43.712 53.6734C44.1112 53.5101 44.4559 53.2743 44.71 53.0021C45.0003 52.7118 45.2362 52.367 45.3995 51.9859C45.5628 51.6049 45.6354 51.1876 45.6354 50.7339C45.6354 50.2984 45.5446 49.8992 45.3813 49.5ZM44.0204 52.3126C43.8208 52.5121 43.585 52.6755 43.3128 52.7843C43.0587 52.8932 42.7684 52.9658 42.46 52.9658C42.1333 52.9658 41.843 52.9113 41.589 52.7843C41.3168 52.6573 41.0809 52.5121 40.8813 52.3126C40.6817 52.113 40.5184 51.8771 40.4095 51.6049C40.2825 51.3327 40.2281 51.0424 40.2281 50.7339L40.2644 49.4275C40.4277 49.1916 41.3531 48.5202 42.2422 48.5202C42.3329 48.5202 42.4055 48.5202 42.4962 48.5384L42.6596 48.5565C42.8773 48.5746 43.1132 48.6109 43.3309 48.7017C43.6031 48.8105 43.839 48.9738 44.0386 49.1734C44.2563 49.3912 44.4015 49.6271 44.5104 49.8992C44.6192 50.1714 44.6737 50.4799 44.6737 50.7521C44.6737 51.0424 44.6192 51.3327 44.5104 51.623C44.3833 51.8771 44.22 52.113 44.0204 52.3126Z" fill="white"/>
<path d="M52.0406 48.0483V51.1874C52.0406 51.6592 51.9317 52.1128 51.7139 52.4938C51.4962 52.893 51.1877 53.2196 50.8248 53.4555C50.6071 53.6007 50.3531 53.7096 50.1172 53.7821C49.8631 53.8547 49.591 53.9091 49.3188 53.9091C49.0466 53.9091 48.7744 53.8729 48.5204 53.7821C48.2664 53.7096 48.0305 53.5825 47.8127 53.4374C47.4498 53.2015 47.1414 52.8749 46.9236 52.4757C46.7059 52.0765 46.5789 51.641 46.5789 51.1692V48.0301C46.5789 47.7579 46.7966 47.5583 47.0506 47.5583C47.3047 47.5583 47.5406 47.7761 47.5406 48.0301V51.1692C47.5406 51.4233 47.595 51.641 47.6857 51.8587C47.7764 52.0765 47.9035 52.2579 48.0668 52.4212C48.2301 52.5846 48.4115 52.7116 48.6293 52.8023C48.847 52.893 49.0829 52.9475 49.3188 52.9475C49.5547 52.9475 49.7906 52.893 50.0083 52.8023C50.226 52.7116 50.4075 52.5846 50.5708 52.4212C50.7341 52.2579 50.8611 52.0765 50.9518 51.8587C51.0426 51.641 51.097 51.4051 51.097 51.1692V48.0301C51.097 47.7579 51.3148 47.5583 51.5869 47.5583C51.8591 47.5583 52.0406 47.7942 52.0406 48.0483Z" fill="white"/>
<path d="M56.6494 52.1675C56.6494 52.4215 56.5768 52.6574 56.4861 52.8751C56.3772 53.0929 56.2321 53.2925 56.0506 53.4558C55.8692 53.6191 55.6514 53.7461 55.4155 53.8368C55.1978 53.9276 54.9619 53.9638 54.726 53.9638H54.6534C54.2724 53.9457 53.9276 53.855 53.6373 53.6735C53.5647 53.6372 53.4921 53.5828 53.4196 53.5284C53.3107 53.4376 53.2563 53.3106 53.2563 53.1655C53.2563 53.0203 53.3288 52.8751 53.4559 52.8026C53.5466 52.7481 53.6373 52.7118 53.7462 52.7118C53.855 52.7118 53.9639 52.7481 54.0546 52.8207C54.2361 52.9477 54.4357 53.0203 54.6716 53.0203C54.9437 53.0203 55.1615 52.9477 55.3611 52.8026C55.5607 52.6393 55.6696 52.4215 55.6696 52.1856C55.6696 52.0949 55.6696 52.0405 55.6514 52.0042L55.6151 51.859C55.5607 51.7138 55.4155 51.5505 55.2159 51.4417L55.1071 51.3691C54.9982 51.2965 54.853 51.2239 54.7079 51.1695C54.5627 51.1151 54.4175 51.0425 54.2724 50.9699C54.1272 50.8973 53.9821 50.8247 53.8369 50.7522C53.728 50.6796 53.6192 50.607 53.4921 50.5163C53.2563 50.2804 53.1292 50.1171 53.0385 49.8993C52.9478 49.6997 52.9115 49.482 52.9115 49.2643C52.9115 49.0465 52.9659 48.8288 53.0748 48.6292C53.1837 48.4296 53.3107 48.2481 53.474 48.1211C53.6373 47.9759 53.8369 47.8489 54.0546 47.7763C54.2542 47.7038 54.472 47.6675 54.7079 47.6675C55.0889 47.6856 55.3974 47.7582 55.6696 47.9034C55.724 47.9397 55.7784 47.9759 55.8329 48.0122C55.9236 48.0848 55.978 48.1937 55.978 48.3207C55.978 48.4477 55.9236 48.5747 55.8147 48.6292L55.6514 48.738C55.5063 48.7743 55.4518 48.7925 55.3974 48.7925H55.3429L55.2159 48.738C55.0708 48.6473 54.9075 48.611 54.7442 48.611C54.4901 48.611 54.3087 48.6655 54.1454 48.7925C53.8913 48.9739 53.855 49.1917 53.855 49.3005L53.8913 49.482C53.9095 49.5546 53.9639 49.6634 54.0546 49.7542C54.1454 49.8449 54.2361 49.8993 54.3631 49.9538C54.5083 50.0445 54.7079 50.1352 54.9075 50.2441C55.1071 50.3348 55.3248 50.4437 55.5244 50.5707C55.6696 50.6433 55.8147 50.7159 55.9599 50.8429C56.105 50.9699 56.1776 51.0606 56.2865 51.1876C56.3954 51.3328 56.4861 51.5143 56.5405 51.6957C56.6312 51.7683 56.6494 51.9497 56.6494 52.1675Z" fill="white"/>
<path d="M17.8731 49.4456C17.7098 49.0646 17.4739 48.7198 17.2018 48.4476C16.9114 48.1573 16.5848 47.9396 16.1856 47.7762C15.8046 47.6129 15.3873 47.5222 14.9518 47.5222C14.5163 47.5222 14.0989 47.6129 13.7179 47.7762C13.3369 47.9396 12.9921 48.1754 12.7018 48.4476C12.4114 48.7379 12.1937 49.0827 12.0304 49.4456C11.8671 49.8267 11.7764 50.244 11.7764 50.6795C11.7764 51.115 11.8671 51.5323 12.0304 51.9133C12.1937 52.2944 12.4114 52.621 12.7018 52.9113C12.9921 53.2016 13.3187 53.4194 13.7179 53.5827C14.0989 53.746 14.5163 53.8367 14.9518 53.8367C15.3873 53.8367 15.8046 53.746 16.1856 53.5827C16.5667 53.4194 16.9114 53.2016 17.2018 52.9113C17.4921 52.621 17.7098 52.2944 17.8731 51.9133C18.0364 51.5323 18.1272 51.115 18.1272 50.6795C18.109 50.244 18.0364 49.8448 17.8731 49.4456ZM16.5123 52.2581C16.3127 52.4577 16.0768 52.621 15.8046 52.7299C15.5324 52.8387 15.2421 52.9113 14.9518 52.9113C14.6433 52.9113 14.3711 52.8569 14.0989 52.7299C13.8268 52.621 13.5909 52.4577 13.3913 52.2581C13.1917 52.0585 13.0284 51.8226 12.9195 51.5504C12.8106 51.2783 12.7381 50.9879 12.7381 50.6976C12.7381 50.3891 12.7925 50.117 12.9195 49.8448C13.0465 49.5726 13.1917 49.3367 13.3913 49.1371C13.5909 48.9375 13.8268 48.7742 14.0989 48.6654C14.3711 48.5565 14.6614 48.5021 14.9518 48.5021C15.2421 48.5021 15.5324 48.5565 15.8046 48.6654C16.0768 48.7742 16.3127 48.9375 16.5123 49.1371C16.7118 49.3367 16.8752 49.5726 16.984 49.8448C17.0929 50.117 17.1473 50.4073 17.1473 50.6976C17.1473 51.0061 17.0929 51.2783 16.984 51.5504C16.8752 51.8045 16.7118 52.0585 16.5123 52.2581Z" fill="white"/>
<defs>
<linearGradient id="paint0_linear" x1="61.2222" y1="61.2222" x2="1.77301" y2="1.77296" gradientUnits="userSpaceOnUse">
<stop stop-color="#FD6500"/>
<stop offset="1" stop-color="#D5410F"/>
</linearGradient>
</defs>
</svg>
